<?xml version="1.0" encoding="utf-8"?>
<!-- Generator: Adobe Illustrator 15.1.0, SVG Export Plug-In . SVG Version: 6.00 Build 0)  -->
<!DOCTYPE svg PUBLIC "-//W3C//DTD SVG 1.1//EN" "http://www.w3.org/Graphics/SVG/1.1/DTD/svg11.dtd">
<svg version="1.1" id="Layer_1" xmlns="http://www.w3.org/2000/svg" xmlns:xlink="http://www.w3.org/1999/xlink" x="0px" y="0px"
	 width="21px" height="21px" viewBox="0 0 21 21" enable-background="new 0 0 21 21" xml:space="preserve">
<path fill="#70767F" d="M10.5,0C4.71,0,0,4.71,0,10.5C0,16.29,4.71,21,10.5,21C16.29,21,21,16.29,21,10.5C21,4.71,16.29,0,10.5,0z
	 M10.5,20C5.262,20,1,15.738,1,10.5S5.262,1,10.5,1S20,5.262,20,10.5S15.738,20,10.5,20z M14.71,6.997L11.207,10.5l3.503,3.503
	c0.195,0.195,0.195,0.512,0,0.707c-0.098,0.098-0.226,0.146-0.354,0.146s-0.256-0.049-0.354-0.146L10.5,11.207l-3.504,3.504
	c-0.098,0.098-0.226,0.146-0.354,0.146s-0.256-0.049-0.354-0.146c-0.195-0.195-0.195-0.512,0-0.707L9.792,10.5L6.289,6.997
	c-0.195-0.195-0.195-0.512,0-0.707s0.512-0.195,0.707,0L10.5,9.793l3.503-3.503c0.195-0.195,0.512-0.195,0.707,0
	S14.905,6.802,14.71,6.997z"/>
</svg>
