<?xml version="1.0" encoding="utf-8"?>
<!-- Generator: Adobe Illustrator 15.1.0, SVG Export Plug-In . SVG Version: 6.00 Build 0)  -->
<!DOCTYPE svg PUBLIC "-//W3C//DTD SVG 1.1//EN" "http://www.w3.org/Graphics/SVG/1.1/DTD/svg11.dtd">
<svg version="1.1" id="Layer_1" xmlns="http://www.w3.org/2000/svg" xmlns:xlink="http://www.w3.org/1999/xlink" x="0px" y="0px"
	 width="35.494px" height="30px" viewBox="-2.366 -2 35.494 30" enable-background="new -2.366 -2 35.494 30" xml:space="preserve">
<path fill="#00CC99" d="M15.958,16.435c0,0.318-0.258,0.577-0.577,0.577H14.86l-5.807,5.343c-0.108,0.1-0.248,0.152-0.39,0.152
	c-0.078,0-0.157-0.017-0.232-0.049c-0.209-0.092-0.345-0.3-0.345-0.528v-4.918h-0.17c-5.669,0-10.282-4.264-10.282-9.506
	S2.247-2,7.916-2h11.944c5.67,0,10.281,4.264,10.281,9.505c0,1.272-0.271,2.507-0.802,3.674c-0.131,0.29-0.475,0.419-0.766,0.285
	c-0.289-0.133-0.415-0.475-0.285-0.765c0.464-1.014,0.699-2.089,0.699-3.194c0-4.605-4.095-8.352-9.128-8.352H7.916
	c-5.034,0-9.128,3.747-9.128,8.352s4.095,8.352,9.128,8.352h0.746c0.319,0,0.577,0.258,0.577,0.577v4.178l5.004-4.604
	c0.106-0.097,0.246-0.151,0.39-0.151h0.747C15.7,15.857,15.958,16.115,15.958,16.435z M33.128,20.556
	c0,4.104-3.608,7.444-8.042,7.444s-8.043-3.34-8.043-7.444s3.609-7.445,8.043-7.445S33.128,16.45,33.128,20.556z M31.975,20.556
	c0-3.469-3.09-6.291-6.889-6.291s-6.89,2.822-6.89,6.291s3.091,6.29,6.89,6.29S31.975,24.024,31.975,20.556z M28.819,19.979h-3.155
	v-2.859c0-0.317-0.26-0.576-0.577-0.576c-0.318,0-0.577,0.259-0.577,0.576v2.859h-3.156c-0.318,0-0.576,0.258-0.576,0.577
	c0,0.318,0.258,0.576,0.576,0.576h3.156v2.856c0,0.319,0.259,0.577,0.577,0.577c0.317,0,0.577-0.258,0.577-0.577v-2.856h3.155
	c0.318,0,0.576-0.258,0.576-0.576C29.395,20.236,29.138,19.979,28.819,19.979z"/>
</svg>
