<?xml version="1.0" encoding="utf-8"?>
<!-- Generator: Adobe Illustrator 15.1.0, SVG Export Plug-In . SVG Version: 6.00 Build 0)  -->
<!DOCTYPE svg PUBLIC "-//W3C//DTD SVG 1.1//EN" "http://www.w3.org/Graphics/SVG/1.1/DTD/svg11.dtd">
<svg version="1.1" id="Layer_1" xmlns="http://www.w3.org/2000/svg" xmlns:xlink="http://www.w3.org/1999/xlink" x="0px" y="0px"
	 width="16px" height="15.559px" viewBox="0 0 16 15.559" enable-background="new 0 0 16 15.559" xml:space="preserve">
<path fill="#62666A" d="M15.835,14.688l-4.151-3.746c0.99-1.16,1.593-2.662,1.593-4.304C13.276,2.978,10.299,0,6.638,0
	C2.978,0,0,2.978,0,6.638s2.978,6.639,6.638,6.639c1.659,0,3.174-0.616,4.338-1.626l4.188,3.779
	c0.096,0.086,0.216,0.129,0.335,0.129c0.137,0,0.272-0.056,0.371-0.165C16.057,15.188,16.04,14.872,15.835,14.688z M1,6.638
	C1,3.529,3.529,1,6.638,1s5.638,2.529,5.638,5.638c0,3.109-2.529,5.639-5.638,5.639S1,9.747,1,6.638z"/>
</svg>
